<?xml version="1.0" standalone="no"?>
<!DOCTYPE svg PUBLIC "-//W3C//DTD SVG 20010904//EN"
 "http://www.w3.org/TR/2001/REC-SVG-20010904/DTD/svg10.dtd">
<svg version="1.0" xmlns="http://www.w3.org/2000/svg"
 width="1024.000000pt" height="1024.000000pt" viewBox="0 0 1024.000000 1024.000000"
 preserveAspectRatio="xMidYMid meet">

<g transform="translate(0.000000,1024.000000) scale(0.100000,-0.100000)"
fill="#000000" stroke="none">
<path d="M4940 9029 c-529 -67 -889 -200 -1251 -460 -255 -183 -404 -334 -595
-604 -286 -403 -450 -925 -443 -1407 l2 -137 -71 -138 c-39 -76 -79 -160 -90
-188 -12 -27 -57 -133 -102 -235 -45 -102 -106 -239 -135 -305 -29 -66 -67
-150 -84 -187 -36 -79 -39 -133 -12 -195 31 -68 51 -73 296 -80 l214 -6 3
-636 3 -636 23 -58 c31 -77 110 -194 166 -245 51 -47 132 -90 243 -129 l78
-28 593 0 592 0 0 -833 0 -833 25 -24 c50 -51 45 -53 560 279 200 129 787 521
985 657 485 336 740 520 1015 734 72 56 181 139 243 184 62 46 118 93 125 104
9 17 12 134 13 472 0 501 -6 446 74 635 33 79 168 360 201 420 22 39 28 51 93
195 125 277 194 517 238 820 20 142 15 423 -10 605 -24 171 -83 409 -138 558
-151 408 -469 855 -794 1115 -409 327 -902 522 -1485 587 -106 12 -481 11
-575 -1z m967 -320 c77 -10 157 -41 200 -76 24 -19 53 -131 53 -202 0 -37 1
-38 58 -55 31 -10 81 -31 111 -47 l55 -29 55 39 c123 85 160 89 258 25 88 -57
236 -211 251 -260 22 -74 17 -88 -57 -184 -19 -25 -42 -51 -50 -57 -12 -11
-10 -21 17 -75 17 -35 36 -84 43 -110 12 -50 24 -58 90 -58 96 0 186 -56 206
-128 5 -15 8 -94 8 -177 0 -136 -2 -154 -22 -192 -23 -43 -60 -78 -94 -88 -11
-4 -54 -12 -97 -18 l-76 -12 -8 -45 c-4 -25 -22 -73 -38 -107 -35 -71 -36 -67
41 -186 37 -56 40 -67 37 -112 -6 -72 -31 -117 -120 -210 -92 -97 -156 -135
-230 -135 -66 0 -102 17 -171 80 l-58 53 -24 -23 c-13 -12 -59 -35 -102 -50
l-78 -28 -13 -77 c-13 -80 -46 -157 -79 -187 -61 -55 -221 -82 -326 -55 -134
35 -175 82 -200 232 l-13 78 -50 17 c-59 21 -110 46 -143 71 -23 19 -24 18
-68 -21 -62 -54 -137 -90 -190 -90 -53 0 -103 24 -163 79 -24 23 -49 40 -55
38 -5 -2 -28 -10 -50 -18 -22 -7 -41 -14 -43 -15 -2 -1 11 -22 29 -47 45 -64
51 -130 16 -190 -65 -111 -166 -204 -244 -226 -38 -11 -96 8 -134 45 l-28 27
-33 -25 c-18 -14 -43 -28 -54 -32 -18 -5 -22 -16 -26 -62 -3 -33 -13 -65 -24
-81 -48 -64 -199 -112 -309 -98 -122 17 -195 74 -216 172 -13 59 -32 93 -55
93 -6 0 -32 -11 -55 -25 -31 -17 -59 -25 -96 -25 -45 0 -58 5 -110 44 -124 94
-202 199 -203 274 0 38 11 61 51 113 16 20 29 42 29 47 0 6 -24 16 -54 22 -74
15 -115 45 -151 110 -28 52 -30 61 -30 170 0 107 2 118 27 162 32 53 72 81
141 98 56 15 59 27 18 79 -45 57 -55 105 -31 159 25 55 188 217 245 243 53 24
72 24 119 -5 36 -21 43 -22 70 -11 17 7 45 17 61 22 28 8 30 12 30 60 0 99 75
143 256 151 193 8 257 -24 280 -137 l11 -58 61 -12 c34 -6 74 -14 89 -17 l27
-6 -6 55 c-14 140 70 224 234 235 82 5 83 5 83 32 0 45 29 127 56 159 l26 31
-45 52 c-58 69 -87 128 -87 176 0 94 128 265 242 322 88 44 138 42 215 -9 32
-22 67 -49 78 -60 24 -28 34 -27 111 14 36 19 78 35 92 35 47 0 54 13 63 105
15 146 33 189 93 226 36 22 146 26 273 8z"/>
<path d="M5707 8508 c-4 -29 -9 -96 -13 -149 l-6 -95 -37 -2 c-99 -7 -284 -81
-348 -140 l-31 -29 -79 73 c-43 41 -89 77 -101 80 -20 6 -36 -6 -97 -66 -112
-111 -111 -102 -26 -214 l71 -96 -49 -92 c-33 -62 -59 -128 -77 -199 l-27
-106 -121 -9 -121 -9 0 -134 c0 -109 3 -135 15 -142 8 -4 62 -14 119 -21 l104
-13 13 -65 c18 -87 59 -192 106 -266 21 -34 38 -65 38 -70 0 -5 -31 -41 -70
-79 -38 -38 -70 -74 -70 -80 0 -13 150 -195 172 -209 15 -9 27 -2 70 39 29 28
70 66 90 84 l37 34 60 -41 c75 -53 175 -98 270 -123 41 -10 77 -21 80 -24 2
-3 12 -60 21 -128 l15 -122 130 0 130 0 17 124 c17 127 23 141 65 141 32 0
191 58 253 92 30 17 67 42 83 56 l27 26 28 -25 c15 -14 55 -51 90 -82 34 -31
68 -54 76 -51 13 5 168 178 174 195 2 5 -16 33 -40 62 -24 29 -56 68 -71 88
l-28 37 23 34 c38 56 118 254 125 308 5 47 7 50 35 50 16 0 72 5 124 12 l94
11 0 134 c0 157 12 143 -146 163 l-101 12 -6 48 c-8 62 -56 187 -108 275 -23
40 -36 71 -29 73 6 2 29 32 52 65 22 34 52 74 66 89 l24 27 -83 93 c-45 51
-88 96 -95 100 -11 7 -149 -95 -182 -134 -11 -14 -20 -11 -77 27 -72 48 -193
98 -295 121 l-67 16 -7 116 c-11 179 5 162 -151 162 l-133 0 -5 -52z m347
-453 c246 -67 439 -262 523 -527 23 -73 26 -100 26 -218 0 -118 -3 -146 -27
-225 -70 -232 -237 -407 -472 -495 -86 -33 -94 -34 -239 -34 -169 -1 -223 9
-330 59 -278 132 -444 391 -445 695 0 105 36 264 81 352 104 207 319 366 550
407 74 14 261 5 333 -14z"/>
<path d="M5729 7901 c-117 -25 -187 -63 -279 -152 -115 -111 -174 -235 -195
-409 -7 -59 13 -179 41 -247 30 -71 120 -198 171 -241 91 -76 295 -152 409
-152 105 0 294 90 395 190 52 51 76 85 112 160 71 150 83 237 50 381 -21 97
-44 149 -98 225 -86 120 -205 202 -355 243 -90 25 -138 25 -251 2z m266 -247
c65 -23 156 -113 193 -191 23 -50 27 -70 26 -148 0 -68 -6 -104 -23 -147 -31
-80 -104 -157 -183 -194 -56 -26 -74 -29 -158 -29 -114 1 -162 20 -250 102
-84 78 -104 129 -105 268 0 97 3 116 25 160 27 57 100 134 151 161 87 46 223
53 324 18z"/>
<path d="M5780 7497 c-83 -43 -110 -87 -110 -178 0 -64 18 -107 63 -146 68
-60 149 -63 227 -11 65 45 98 150 69 225 -34 92 -169 151 -249 110z"/>
<path d="M3898 7313 l-3 -87 -55 -16 c-73 -22 -134 -54 -164 -86 l-24 -27 -55
52 c-29 28 -59 51 -65 51 -6 0 -41 -36 -77 -79 -36 -44 -71 -82 -78 -84 -7 -3
12 -29 46 -64 l58 -60 -25 -37 c-14 -21 -30 -64 -37 -96 -11 -56 -12 -58 -48
-64 -20 -3 -55 -6 -77 -6 -29 0 -44 -5 -48 -16 -3 -9 -6 -62 -6 -119 l0 -102
31 -7 c17 -3 55 -6 83 -6 l51 0 21 -73 c12 -39 28 -87 35 -105 9 -21 10 -35 4
-40 -6 -4 -27 -34 -49 -66 l-38 -59 80 -80 c45 -43 86 -77 91 -75 6 1 35 27
65 56 l56 54 46 -41 c46 -40 77 -54 145 -65 42 -7 49 -26 49 -127 l0 -59 120
0 120 0 0 90 c0 88 0 90 24 90 49 0 152 40 193 75 23 19 44 35 48 35 3 0 30
-18 60 -41 30 -22 58 -39 62 -37 16 6 153 155 153 165 0 6 -22 31 -50 57 -27
26 -50 51 -50 57 0 5 8 24 17 42 9 18 22 57 28 87 l12 55 79 0 c74 0 79 1 74
20 -7 30 -6 143 2 198 l8 47 -79 0 -79 0 -7 43 c-4 23 -18 69 -31 102 l-24 60
50 47 c27 26 50 49 50 52 0 3 -21 17 -47 30 -50 25 -79 51 -97 89 -17 33 -48
32 -79 -3 -15 -16 -31 -30 -35 -30 -5 0 -21 13 -37 30 -33 34 -110 66 -184 76
-58 8 -59 9 -63 114 l-3 65 -122 3 -122 3 -3 -88z m242 -299 c80 -18 131 -48
192 -111 86 -89 135 -218 123 -328 -20 -194 -98 -313 -253 -387 -119 -56 -271
-46 -398 27 -160 93 -238 326 -174 520 42 129 68 162 185 238 82 54 206 69
325 41z"/>
<path d="M3934 6816 c-57 -27 -99 -72 -125 -138 -27 -65 -24 -116 11 -186 70
-139 179 -176 318 -107 64 33 73 41 96 90 46 96 26 244 -42 307 -64 61 -170
75 -258 34z"/>
</g>
</svg>
